<?xml version="1.0" standalone="no"?>
<!DOCTYPE svg PUBLIC "-//W3C//DTD SVG 20010904//EN"
 "http://www.w3.org/TR/2001/REC-SVG-20010904/DTD/svg10.dtd">
<svg version="1.0" xmlns="http://www.w3.org/2000/svg"
 width="344.000000pt" height="344.000000pt" viewBox="0 0 344.000000 344.000000"
 preserveAspectRatio="xMidYMid meet">

<g transform="translate(0.000000,344.000000) scale(0.100000,-0.100000)"
fill="#8e3040" stroke="none">
<path d="M760 2863 c0 -42 24 -97 58 -134 24 -28 69 -56 141 -91 66 -31 118
-64 138 -86 18 -20 34 -34 37 -31 2 2 -2 25 -9 52 -17 68 -89 148 -175 197 -8
5 -12 11 -8 15 12 12 83 -26 127 -68 l44 -42 -24 44 c-32 58 -59 78 -143 102
-39 11 -94 29 -121 40 -62 23 -65 23 -65 2z"/>
<path d="M1495 2860 c-22 -10 -71 -27 -109 -36 -86 -22 -124 -48 -155 -104
l-25 -45 51 47 c47 43 96 68 109 55 3 -3 -14 -17 -38 -31 -54 -31 -115 -111
-134 -172 -20 -68 -18 -69 24 -25 24 25 71 56 123 80 151 71 208 131 209 219
0 37 -1 37 -55 12z"/>
<path d="M440 2704 c-52 -13 -121 -24 -152 -24 -42 0 -58 -4 -58 -13 0 -26 57
-93 106 -126 82 -54 127 -62 339 -59 159 3 196 0 226 -14 53 -24 114 -82 161
-154 22 -35 43 -64 45 -64 14 0 19 49 6 73 -26 52 -146 168 -234 226 -105 71
-162 91 -282 100 l-92 7 40 18 c35 16 48 17 104 7 35 -7 86 -21 114 -31 28
-11 53 -17 56 -14 11 11 -64 63 -113 78 -67 22 -154 19 -266 -10z"/>
<path d="M1579 2716 c-20 -7 -52 -23 -72 -34 -59 -37 -80 -76 -25 -48 89 46
218 63 268 35 23 -13 19 -14 -68 -22 -157 -13 -256 -59 -386 -178 -174 -161
-255 -367 -243 -623 9 -196 61 -338 163 -442 49 -51 114 -88 142 -82 7 2 -9
20 -36 40 -65 48 -137 158 -176 267 -28 79 -30 96 -30 216 0 154 19 237 89
381 52 107 124 192 192 225 43 21 67 23 243 29 172 5 201 8 243 27 67 31 104
59 138 106 43 59 39 67 -28 67 -32 0 -103 11 -158 25 -109 27 -200 31 -256 11z"/>
<path d="M2092 2665 c2 -9 38 -31 80 -49 257 -112 467 -324 573 -578 27 -65
30 -68 62 -68 20 0 33 5 33 13 0 6 -22 58 -50 114 -128 260 -344 457 -617 559
-74 28 -86 29 -81 9z"/>
<path d="M1195 2168 c-4 -13 1 -62 11 -108 22 -110 15 -269 -16 -357 -20 -59
-21 -63 -4 -95 l17 -33 24 63 c34 93 56 234 49 317 -5 67 -46 209 -66 229 -5
5 -11 -1 -15 -16z"/>
<path d="M694 1903 c-24 -83 -22 -204 5 -274 37 -96 115 -169 183 -169 37 0
103 38 122 72 47 79 9 217 -86 311 -47 46 -166 117 -197 117 -6 0 -18 -26 -27
-57z m182 -129 c9 -25 14 -47 11 -50 -3 -3 -10 11 -16 31 -9 33 -47 95 -75
120 -6 6 -19 22 -30 35 -10 14 7 -1 37 -34 31 -32 64 -78 73 -102z m-142 0
c-6 -77 -5 -87 20 -138 15 -30 44 -70 65 -89 78 -71 66 -77 -17 -8 -59 49 -87
92 -98 150 -8 37 16 182 28 175 5 -3 6 -43 2 -90z m237 -37 c19 -45 21 -62 15
-132 -10 -113 -24 -115 -23 -4 2 91 1 96 -35 161 -21 36 -38 70 -38 74 0 21
61 -55 81 -99z m-166 -4 c4 -35 15 -73 24 -85 10 -13 23 -34 30 -48 l12 -25
-21 25 c-35 41 -57 101 -63 170 -7 80 8 50 18 -37z m115 -70 c0 -27 2 -71 6
-99 4 -30 2 -54 -3 -57 -6 -4 -8 4 -6 18 3 13 0 40 -7 60 -11 33 -6 125 6 125
3 0 5 -21 4 -47z"/>
<path d="M1511 1922 c-73 -30 -87 -47 -39 -47 l33 0 3 -248 c1 -158 -1 -255
-8 -267 -6 -11 -22 -23 -35 -26 -54 -14 -20 -24 80 -24 63 0 105 4 105 10 0 6
-8 10 -18 10 -37 0 -54 34 -53 104 2 156 119 307 185 240 13 -13 16 -43 16
-174 0 -95 -4 -161 -10 -165 -27 -16 -3 -25 70 -25 44 0 80 3 80 8 0 4 -15 14
-33 22 l-32 15 -5 171 c-6 195 -12 214 -78 214 -45 0 -90 -29 -146 -93 l-46
-52 0 158 c0 91 4 167 10 178 14 26 1 24 -79 -9z"/>
<path d="M2990 1915 c-16 -19 -9 -45 16 -62 19 -12 24 -11 45 6 21 16 22 22
11 45 -13 29 -52 36 -72 11z"/>
<path d="M2140 1733 c-8 -3 -41 -17 -72 -31 l-58 -25 0 -58 c0 -46 3 -59 15
-59 8 0 15 8 15 17 0 29 41 103 66 120 55 36 114 4 114 -61 0 -29 -6 -34 -76
-71 -129 -68 -193 -137 -179 -194 10 -41 44 -71 80 -71 33 0 106 42 139 78 28
32 35 27 38 -25 3 -45 5 -48 33 -51 35 -3 115 48 115 73 0 12 -6 11 -30 -7
-19 -14 -34 -18 -39 -12 -6 5 -11 85 -13 177 -3 164 -4 169 -27 188 -22 18
-86 25 -121 12z m80 -200 c0 -87 -60 -173 -121 -173 -103 0 -84 113 30 172 69
36 91 37 91 1z"/>
<path d="M2453 1717 c-29 -12 -53 -25 -53 -29 0 -4 15 -8 33 -10 l32 -3 3
-148 c3 -158 -3 -183 -43 -193 -54 -14 -20 -24 80 -24 58 0 105 4 105 8 0 4
-16 14 -35 21 -41 14 -52 51 -41 133 18 136 135 264 186 203 12 -15 16 -319 4
-350 -5 -13 6 -15 70 -15 79 0 97 11 47 28 -37 13 -41 36 -41 218 0 131 -2
146 -20 164 -24 24 -70 26 -109 5 -15 -7 -51 -39 -80 -70 l-51 -57 0 71 c0 82
-1 83 -87 48z"/>
<path d="M2978 1717 c-64 -23 -75 -42 -25 -42 l32 0 3 -148 c3 -158 -3 -183
-43 -193 -54 -14 -20 -24 80 -24 63 0 105 4 105 10 0 6 -7 10 -15 10 -8 0 -24
9 -35 20 -19 19 -20 33 -20 205 0 142 -3 185 -12 184 -7 0 -39 -10 -70 -22z"/>
<path d="M467 1713 c-39 -6 -43 -25 -17 -96 43 -121 111 -201 214 -252 84 -42
182 -28 221 32 26 39 9 39 -35 -1 -34 -31 -47 -36 -88 -36 -123 0 -258 131
-307 297 -8 30 16 41 115 52 l75 8 -75 0 c-41 0 -88 -2 -103 -4z"/>
<path d="M548 1663 c7 -3 16 -2 19 1 4 3 -2 6 -13 5 -11 0 -14 -3 -6 -6z"/>
<path d="M611 1646 c2 -2 15 -9 29 -15 24 -11 24 -11 6 3 -16 13 -49 24 -35
12z"/>
<path d="M535 1560 c14 -35 40 -79 57 -97 36 -38 109 -64 172 -62 l41 1 -40 9
c-127 30 -160 51 -200 128 -41 80 -57 91 -30 21z"/>
<path d="M620 1557 c0 -2 15 -16 33 -33 l32 -29 -29 33 c-28 30 -36 37 -36 29z"/>
<path d="M1070 1489 c-28 -46 -77 -100 -130 -143 -31 -25 -32 -27 -10 -21 63
18 190 124 190 158 0 7 -6 21 -12 30 -12 14 -16 12 -38 -24z"/>
<path d="M700 1490 c8 -5 20 -10 25 -10 6 0 3 5 -5 10 -8 5 -19 10 -25 10 -5
0 -3 -5 5 -10z"/>
<path d="M1843 1140 c-35 -14 -30 -53 12 -84 19 -15 35 -34 35 -42 0 -21 -29
-29 -51 -15 -15 9 -19 8 -19 -4 0 -10 10 -15 33 -15 65 0 76 44 22 86 -39 29
-44 50 -17 70 20 15 16 16 -15 4z"/>
<path d="M2551 1093 c-11 -32 -27 -70 -35 -85 -15 -27 -14 -28 11 -28 19 0 24
3 17 10 -8 8 -5 30 9 72 18 57 21 60 29 38 5 -14 7 -35 5 -47 -2 -12 0 -20 4
-17 8 5 13 -13 12 -43 -1 -7 7 -13 17 -13 17 0 16 6 -7 78 -13 42 -28 81 -33
85 -4 5 -17 -17 -29 -50z"/>
<path d="M3102 1139 c-36 -13 -29 -55 13 -81 24 -16 34 -29 33 -43 -4 -26 -38
-32 -55 -9 -12 17 -13 16 -13 -4 0 -18 6 -22 34 -22 64 0 74 59 16 93 -32 19
-40 51 -15 61 8 3 21 -1 29 -9 18 -19 26 -19 26 -1 0 17 -39 25 -68 15z"/>
<path d="M539 1113 c-6 -16 -17 -46 -25 -67 -8 -22 -19 -45 -25 -53 -9 -10 -6
-13 17 -13 19 0 25 3 18 10 -8 8 -5 30 9 73 16 49 22 57 28 42 4 -11 8 -32 8
-47 1 -15 6 -30 12 -34 6 -3 9 -15 6 -25 -4 -14 0 -19 13 -19 16 0 18 4 10 28
-5 15 -16 51 -25 80 -19 58 -30 65 -46 25z"/>
<path d="M655 1060 l0 -80 48 0 c45 0 47 1 46 28 0 27 -1 27 -11 5 -7 -15 -20
-23 -35 -23 -24 0 -25 1 -21 75 2 62 0 75 -12 75 -12 0 -15 -16 -15 -80z"/>
<path d="M788 1069 c3 -52 0 -74 -10 -80 -9 -6 -6 -9 12 -9 25 0 25 0 22 80
-2 53 -8 80 -15 80 -8 0 -11 -21 -9 -71z"/>
<path d="M858 1061 c-2 -67 0 -81 12 -81 12 0 14 10 12 44 -6 75 2 86 22 29
10 -29 21 -53 26 -53 5 0 16 24 26 53 20 57 28 46 22 -29 -2 -34 0 -44 12 -44
12 0 15 15 15 80 0 97 -17 104 -50 22 l-22 -54 -20 54 c-11 29 -27 54 -36 56
-13 3 -16 -11 -19 -77z"/>
<path d="M1055 1060 l0 -80 46 0 c34 0 49 4 53 16 9 24 -3 32 -15 11 -6 -9
-21 -17 -34 -17 -22 0 -25 4 -25 36 0 33 2 36 25 32 20 -4 25 -1 24 16 0 11
-3 15 -6 9 -2 -7 -13 -13 -24 -13 -14 0 -19 7 -19 30 0 27 3 30 30 30 17 0 30
-5 30 -11 0 -5 5 -7 10 -4 24 15 6 25 -42 25 l-53 0 0 -80z"/>
<path d="M1198 1069 c3 -52 0 -74 -10 -80 -10 -6 -8 -9 7 -9 18 0 20 5 17 44
-8 92 0 97 41 23 21 -37 42 -65 48 -62 12 8 12 155 -1 155 -6 0 -10 -26 -10
-57 l0 -58 -33 55 c-48 80 -63 78 -59 -11z"/>
<path d="M1340 1118 c1 -21 2 -22 14 -5 28 36 38 20 34 -58 -3 -73 -2 -75 20
-75 15 0 21 4 16 12 -4 6 -9 40 -12 75 -3 55 -2 63 13 63 10 0 24 -8 31 -17
12 -17 13 -16 14 5 0 21 -4 22 -65 22 -61 0 -65 -1 -65 -22z"/>
<path d="M1506 1118 c-37 -52 -9 -138 43 -138 39 0 61 28 61 79 0 50 -14 81
-37 81 -15 0 -15 -2 0 -18 20 -22 23 -102 5 -120 -34 -34 -68 -1 -68 67 0 30
6 44 22 55 18 13 19 16 6 16 -9 0 -24 -10 -32 -22z"/>
<path d="M1657 1133 c-18 -17 -5 -53 29 -80 25 -20 33 -33 29 -46 -8 -20 -35
-23 -53 -5 -13 13 -27 5 -17 -11 11 -19 73 -13 85 8 15 28 14 30 -31 71 -38
34 -39 38 -24 53 13 13 13 17 2 17 -7 0 -17 -3 -20 -7z"/>
<path d="M1706 1133 c5 -5 12 -12 16 -18 4 -6 8 -2 8 8 0 9 -7 17 -17 17 -9 0
-12 -3 -7 -7z"/>
<path d="M1886 1126 c3 -9 11 -16 16 -16 13 0 5 23 -10 28 -7 2 -10 -2 -6 -12z"/>
<path d="M1979 1113 c-6 -16 -17 -46 -25 -67 -8 -22 -19 -45 -25 -53 -9 -10
-6 -13 16 -13 22 0 25 3 16 14 -9 11 -8 17 2 28 7 7 12 18 10 25 -2 6 2 26 10
44 l14 34 7 -40 c4 -22 12 -50 17 -63 5 -13 7 -28 4 -33 -4 -5 3 -9 15 -9 12
0 19 3 17 8 -3 4 -15 40 -26 80 -12 39 -26 72 -32 72 -5 0 -14 -12 -20 -27z"/>
<path d="M2095 1060 l0 -80 48 0 c45 0 47 1 46 28 0 27 -1 27 -11 5 -7 -15
-20 -23 -35 -23 -24 0 -25 1 -21 75 2 62 0 75 -12 75 -12 0 -15 -16 -15 -80z"/>
<path d="M2218 1073 c5 -78 13 -93 52 -93 15 0 32 6 38 13 15 18 20 147 5 147
-8 0 -13 -24 -15 -72 -3 -70 -4 -73 -28 -73 -24 0 -25 3 -28 73 -2 49 -7 72
-15 72 -9 0 -12 -18 -9 -67z"/>
<path d="M2377 1068 c1 -47 -3 -75 -10 -80 -7 -4 7 -8 31 -8 56 0 92 33 92 85
0 47 -29 75 -77 75 l-38 0 2 -72z m77 40 c31 -43 9 -118 -35 -118 -17 0 -19 7
-19 70 0 63 2 70 19 70 11 0 27 -10 35 -22z"/>
<path d="M2678 1075 c2 -42 -1 -71 -8 -80 -11 -13 -6 -15 29 -15 23 0 51 5 62
10 23 13 26 58 4 67 -14 5 -14 8 2 25 26 29 6 52 -48 56 l-44 3 3 -66z m77 45
c10 -16 -14 -50 -35 -50 -16 0 -20 7 -20 30 0 25 4 30 24 30 14 0 28 -4 31
-10z m-2 -82 c13 -20 -6 -48 -34 -48 -15 0 -19 7 -19 36 0 31 3 35 21 32 12
-2 27 -10 32 -20z"/>
<path d="M2815 1060 l0 -81 49 3 c44 3 49 6 53 28 l3 25 -18 -24 c-11 -14 -26
-22 -38 -19 -17 3 -19 12 -19 76 0 57 -3 72 -15 72 -12 0 -15 -16 -15 -80z"/>
<path d="M2948 1060 l-3 -80 53 0 c47 0 52 2 52 23 -1 20 -2 21 -14 5 -7 -10
-25 -18 -40 -18 -23 0 -26 4 -26 35 0 27 4 35 18 35 10 0 23 -5 30 -12 9 -9
12 -6 12 17 0 23 -3 26 -12 17 -7 -7 -20 -12 -30 -12 -13 0 -18 8 -18 30 0 27
3 30 30 30 17 0 30 -4 30 -10 0 -5 5 -10 10 -10 6 0 10 7 10 15 0 11 -12 15
-49 15 l-49 0 -4 -80z"/>
<path d="M934 899 c-10 -17 146 -163 246 -228 103 -68 205 -113 339 -149 86
-23 115 -25 271 -25 159 0 184 2 275 27 127 34 299 117 395 192 77 58 194 173
186 182 -3 2 -26 5 -53 6 -46 1 -51 -2 -113 -57 -85 -78 -162 -130 -263 -177
-399 -190 -861 -119 -1194 184 -63 57 -77 64 -89 45z"/>
</g>
</svg>
